<?xml version="1.0" encoding="UTF-8" standalone="no"?>
<!-- Created with Inkscape (http://www.inkscape.org/) -->

<svg
   width="512"
   height="512"
   viewBox="0 0 512 512"
   version="1.1"
   id="svg1"
   xml:space="preserve"
   xmlns="http://www.w3.org/2000/svg"
   xmlns:svg="http://www.w3.org/2000/svg"><defs
     id="defs1" /><g
     id="layer2"><text
       style="font-size:85.3333px;line-height:1.25;font-family:'Libre Barcode 128 Text';-inkscape-font-specification:'Libre Barcode 128 Text';stroke-width:0.940393"
       x="322.44147"
       y="324.48944"
       id="text37"
       transform="scale(0.98731108,1.012852)"><tspan
         id="tspan37"
         x="322.44147"
         y="324.48944"
         style="font-size:85.3333px;fill:currentColor;stroke-width:0.940393">c3qo</tspan></text></g><g
     id="layer1"
     style="display:inline"><g
       style="fill:none;stroke:currentColor;stroke-width:1;stroke-linecap:round;stroke-linejoin:round"
       id="g1"
       transform="matrix(21.643987,0,0,21.144535,-3.6758085,1.984637)"><path
         stroke="none"
         d="M 0,0 H 24 V 24 H 0 Z"
         fill="none"
         id="path1" /><path
         d="M 6.657,18 C 4.085,18 2,15.993 2,13.517 2,11.042 4.085,9.035 6.657,9.035 7.05,7.273 8.451,5.835 10.332,5.262 c 1.88,-0.572 3.956,-0.193 5.444,1 1.488,1.19 2.162,3.007 1.77,4.769 h 0.99 c 1.913,0 3.464,1.56 3.464,3.486 0,1.927 -1.551,3.487 -3.465,3.487 H 6.657"
         id="path2" /></g></g></svg>
