<?xml version="1.0" encoding="UTF-8" standalone="no"?>
<!-- Created with Inkscape (http://www.inkscape.org/) -->

<svg
   width="519.45575"
   height="507.46884"
   viewBox="0 0 519.45575 507.46884"
   version="1.1"
   id="svg1"
   xml:space="preserve"
   xmlns:sodipodi="http://sodipodi.sourceforge.net/DTD/sodipodi-0.dtd"
   xmlns="http://www.w3.org/2000/svg"
   xmlns:svg="http://www.w3.org/2000/svg"><sodipodi:namedview
     id="namedview1"
     pagecolor="#ffffff"
     bordercolor="#666666"
     borderopacity="1.0"
     showgrid="true"></sodipodi:namedview><defs
     id="defs1" /><g
     id="layer2"
     transform="translate(3.6758084,-1.984637)"><path
       d="M 322.44147,324.48944 V 274.1428 h 2.56 v 50.34664 z m 12.79999,0 V 274.1428 h 2.56 v 50.34664 z m 5.12,0 V 274.1428 h 5.12 v 50.34664 z m -2.73067,27.56266 q -2.13333,0 -3.75466,-0.93867 -1.62133,-1.024 -2.56,-2.73067 -0.93867,-1.70666 -0.93867,-3.92533 0,-2.13333 0.93867,-3.84 0.93867,-1.70666 2.56,-2.73066 1.62133,-0.93867 3.75466,-0.93867 1.70667,0 3.15734,0.68267 1.36533,0.68267 2.304,1.96266 l -1.45067,1.45067 -0.17067,0.17067 -0.17066,-0.17067 q 0,-0.256 -0.17067,-0.512 -0.0853,-0.17067 -0.42667,-0.512 -0.68266,-0.59733 -1.45066,-0.85333 -0.85334,-0.34134 -1.87734,-0.34134 -1.28,0 -2.30399,0.68267 -1.10934,0.68267 -1.70667,1.96267 -0.68267,1.19466 -0.68267,2.816 0,1.62133 0.68267,2.98666 0.68267,1.28 1.792,1.96267 1.19466,0.768 2.56,0.768 2.21866,0 3.84,-1.792 l 1.28,1.536 q -2.13334,2.304 -5.20534,2.304 z m 12.97066,-27.56266 V 274.1428 h 5.12 v 50.34664 z m 10.24,0 V 274.1428 h 2.55999 v 50.34664 z m 5.11999,0 V 274.1428 h 7.68 v 50.34664 z m -1.62133,27.56266 q -1.536,0 -2.98666,-0.59734 -1.36534,-0.512 -2.38934,-1.62133 l 1.45067,-1.792 0.17067,-0.256 0.17066,0.17067 q 0.0853,0.34133 0.17067,0.59733 0.0853,0.17067 0.42667,0.512 0.59733,0.512 1.27999,0.768 0.68267,0.34133 1.62134,0.34133 1.87733,0 2.816,-1.10933 0.93866,-1.024 0.93866,-2.90133 0,-1.96267 -1.19466,-2.90133 -1.19467,-1.024 -3.328,-1.024 -0.34134,0 -1.024,0.0853 v -1.792 q 2.816,0 3.84,-1.024 1.024,-1.024 1.024,-2.90133 0,-1.28 -0.768,-2.13333 -0.768,-0.768 -2.048,-0.768 -2.048,0 -3.584,1.45066 l -1.36533,-1.28 q 1.96266,-2.048 4.94933,-2.048 2.38933,0 3.75466,1.36534 1.36534,1.28 1.36534,3.584 0,1.536 -0.768,2.81599 -0.85334,1.19467 -2.304,1.62134 1.70666,0.59733 2.73066,1.87733 1.024,1.28 1.024,3.15733 0,1.62133 -0.68266,2.90133 -0.768,1.36534 -2.048,2.13334 -1.36534,0.768 -3.24267,0.768 z m 14.42132,-27.56266 V 274.1428 h 2.56 v 50.34664 z m 7.68,0 V 274.1428 h 2.56 v 50.34664 z m 5.12,0 V 274.1428 h 10.23999 v 50.34664 z m 5.12,24.91732 q -0.68267,1.19467 -1.87734,1.96267 -1.19466,0.68267 -2.56,0.68267 -1.70666,0 -3.072,-1.024 -1.36533,-0.93867 -2.13333,-2.64534 -0.768,-1.70666 -0.768,-4.01066 0,-2.304 0.85334,-4.01067 0.85333,-1.70666 2.30399,-2.64533 1.45067,-0.85333 3.15734,-0.85333 1.536,0 2.56,0.59733 1.024,0.68267 1.62133,1.87733 v -2.13333 h 2.13333 v 19.79733 h -2.21866 z m -4.096,0.59734 q 1.792,0 2.90133,-1.45067 1.10933,-1.45067 1.10933,-4.52266 0,-5.29067 -3.75466,-5.29067 -1.87734,0 -3.072,1.36533 -1.19467,1.45067 -1.19467,4.18134 0,2.64533 1.10933,4.18133 1.024,1.536 2.90134,1.536 z m 14.33599,-25.51466 V 274.1428 h 2.56 v 50.34664 z m 10.23999,0 V 274.1428 h 10.24 v 50.34664 z m 12.8,0 V 274.1428 h 2.56 v 50.34664 z m -8.96,27.47732 q -1.96266,0 -3.49866,-0.93866 -1.45067,-0.93867 -2.304,-2.64534 -0.93867,-1.70666 -0.93867,-3.92533 0,-2.21866 0.93867,-3.92533 0.85333,-1.70667 2.304,-2.64533 1.536,-1.024 3.49866,-1.024 1.96267,0 3.41333,1.024 1.536,0.93866 2.38934,2.64533 0.85333,1.70667 0.85333,3.92533 0,2.21867 -0.85333,3.92533 -0.85334,1.70667 -2.38934,2.64534 -1.45066,0.93866 -3.41333,0.93866 z m 0,-1.87733 q 1.19467,0 2.21867,-0.768 0.93866,-0.68267 1.536,-1.96267 0.512,-1.36533 0.512,-2.98666 0,-2.47467 -1.19467,-4.01067 -1.19467,-1.536 -3.072,-1.536 -1.87733,0 -3.072,1.536 -1.19466,1.536 -1.19466,4.01067 0,1.62133 0.512,2.98666 0.59733,1.28 1.536,1.96267 0.93866,0.768 2.21866,0.768 z"
       id="text37"
       style="font-size:85.3333px;line-height:1.25;font-family:'Libre Barcode 128 Text';-inkscape-font-specification:'Libre Barcode 128 Text';stroke-width:0.940393"
       transform="scale(0.98731108,1.012852)"
       aria-label="c3qo" /></g><g
     id="layer1"
     style="display:inline"
     transform="translate(3.6758084,-1.984637)"><g
       style="fill:none;stroke:currentColor;stroke-width:1;stroke-linecap:round;stroke-linejoin:round"
       id="g1"
       transform="matrix(21.643987,0,0,21.144535,-3.6758085,1.984637)"><path
         stroke="none"
         d="M 0,0 H 24 V 24 H 0 Z"
         fill="none"
         id="path1" /><path
         d="M 6.657,18 C 4.085,18 2,15.993 2,13.517 2,11.042 4.085,9.035 6.657,9.035 7.05,7.273 8.451,5.835 10.332,5.262 c 1.88,-0.572 3.956,-0.193 5.444,1 1.488,1.19 2.162,3.007 1.77,4.769 h 0.99 c 1.913,0 3.464,1.56 3.464,3.486 0,1.927 -1.551,3.487 -3.465,3.487 H 6.657"
         id="path2" /></g></g></svg>
